<?xml version="1.0" encoding="UTF-8"?>
<!DOCTYPE svg PUBLIC "-//W3C//DTD SVG 1.1//EN" "http://www.w3.org/Graphics/SVG/1.1/DTD/svg11.dtd">
<!-- Creator: CorelDRAW X7 -->
<svg xmlns="http://www.w3.org/2000/svg" xml:space="preserve" width="213px" height="114px" version="1.1" style="shape-rendering:geometricPrecision; text-rendering:geometricPrecision; image-rendering:optimizeQuality; fill-rule:evenodd; clip-rule:evenodd"
viewBox="0 0 52 28"
 xmlns:xlink="http://www.w3.org/1999/xlink">
 <defs>
  <style type="text/css">
   <![CDATA[
    .fil0 {fill:#155BA6}
    .fil1 {fill:#46B4E8;fill-rule:nonzero}
    .fil2 {fill:#F5F7F9;fill-rule:nonzero}
   ]]>
  </style>
 </defs>
 <g id="Layer_x0020_1">
  <metadata id="CorelCorpID_0Corel-Layer"/>
  <g id="_1882205653344">
   <polygon class="fil0" points="0,0 52,0 52,28 0,28 "/>
   <g>
    <path class="fil1" d="M13 5l-2 9c0,1 -1,3 -1,4l0 0c0,-1 0,-3 -1,-4l-1 -9 -4 0 4 18 4 0 4 -18 -3 0z"/>
    <path class="fil2" d="M19 12c-2,0 -4,2 -4,5 0,4 2,6 4,6 2,0 4,-2 4,-6 0,-3 -2,-5 -4,-5zm1 5c0,2 0,4 -1,4 -1,0 -2,-2 -2,-4 0,-1 1,-3 2,-3 1,0 1,2 1,3z"/>
    <path class="fil2" d="M24 12l-1 0 0 2 1 0 0 5c0,1 1,4 3,4 0,0 1,0 1,0l0 -3c0,1 0,1 0,1 -1,0 -1,-1 -1,-2l0 -5 1 0 0 -2 -1 0 0 -3 -3 1 0 2z"/>
    <path class="fil2" d="M35 20c0,1 -1,1 -2,1 -1,0 -2,-1 -2,-3l5 0c0,0 0,0 0,-1 0,-3 -1,-5 -3,-5 -2,0 -4,2 -4,6 0,3 2,5 4,5 1,0 2,0 3,-1l-1 -2zm-4 -4c0,-1 1,-2 2,-2 1,0 1,1 1,2l-3 0z"/>
    <path class="fil2" d="M42 12c0,0 0,0 -1,0 0,0 -1,1 -2,2l0 0 0 -2 -2 0c0,1 1,2 1,3l0 8 2 0 0 -6c0,-2 0,-2 1,-2 1,0 1,0 1,0l0 -3z"/>
    <path class="fil2" d="M48 12c-1,0 -2,0 -2,0 -2,0 -3,1 -3,3 0,1 0,3 2,3 1,1 1,1 1,2 0,0 0,1 -1,1 -1,0 -2,-1 -2,-1l0 2c0,1 1,1 2,1 2,0 3,-1 3,-3 0,-2 -1,-3 -2,-4 -1,0 -1,-1 -1,-1 0,-1 0,-1 1,-1 0,0 1,0 1,0l1 -2z"/>
   </g>
  </g>
 </g>
</svg>
