<?xml version="1.0" encoding="UTF-8"?>
<!DOCTYPE svg PUBLIC "-//W3C//DTD SVG 1.1//EN" "http://www.w3.org/Graphics/SVG/1.1/DTD/svg11.dtd">
<!-- Creator: CorelDRAW X7 -->
<svg xmlns="http://www.w3.org/2000/svg" xml:space="preserve" width="213px" height="114px" version="1.1" style="shape-rendering:geometricPrecision; text-rendering:geometricPrecision; image-rendering:optimizeQuality; fill-rule:evenodd; clip-rule:evenodd"
viewBox="0 0 79 43"
 xmlns:xlink="http://www.w3.org/1999/xlink">
 <defs>
  <style type="text/css">
   <![CDATA[
    .fil0 {fill:none}
    .fil1 {fill:white;fill-rule:nonzero}
   ]]>
  </style>
 </defs>
 <g id="Layer_x0020_1">
  <metadata id="CorelCorpID_0Corel-Layer"/>
  <g id="_1882205685088">
   <polygon class="fil0" points="0,0 79,0 79,43 0,43 "/>
   <g>
    <path class="fil1" d="M19 8l-2 13c-1,2 -1,4 -1,7l-1 0c0,-3 0,-5 -1,-7l-2 -13 -6 0 7 27 5 0 7 -27 -6 0z"/>
    <path class="fil1" d="M29 18c-3,0 -6,3 -6,9 0,5 3,8 6,8 3,0 6,-2 6,-8 0,-5 -2,-9 -6,-9zm2 9c0,3 0,5 -2,5 -1,0 -2,-2 -2,-5 0,-3 0,-6 2,-6 2,0 2,3 2,6z"/>
    <path class="fil1" d="M38 19l-2 0 0 3 2 0 0 7c0,2 0,6 3,6 1,0 2,0 2,0l0 -4c0,1 0,1 -1,1 -1,0 -1,-1 -1,-3l0 -7 2 0 0 -3 -2 0 0 -5 -3 2 0 3z"/>
    <path class="fil1" d="M54 31c-1,1 -2,1 -3,1 -2,0 -3,-1 -3,-4l7 0c0,0 0,-1 0,-2 0,-5 -2,-8 -5,-8 -3,0 -5,4 -5,9 0,5 2,8 6,8 1,0 3,0 4,-1l-1 -3zm-6 -6c0,-2 1,-4 2,-4 2,0 2,2 2,4l-4 0z"/>
    <path class="fil1" d="M64 18c0,0 0,0 -1,0 -1,0 -2,1 -3,3l0 0 0 -2 -3 0c1,1 1,3 1,5l0 11 3 0 0 -9c0,-2 1,-4 2,-4 1,0 1,0 1,0l0 -4z"/>
    <path class="fil1" d="M73 19c-1,0 -2,-1 -3,-1 -3,0 -4,2 -4,5 0,2 0,4 3,5 1,1 1,1 1,2 0,1 0,2 -1,2 -1,0 -3,-1 -3,-1l-1 3c1,1 2,1 4,1 3,0 4,-2 4,-5 0,-2 0,-4 -3,-5 -1,-1 -1,-1 -1,-2 0,-1 0,-2 1,-2 1,0 2,1 2,1l1 -3z"/>
   </g>
  </g>
 </g>
</svg>
