<?xml version="1.0" encoding="UTF-8"?>
<!DOCTYPE svg PUBLIC "-//W3C//DTD SVG 1.1//EN" "http://www.w3.org/Graphics/SVG/1.1/DTD/svg11.dtd">
<!-- Creator: CorelDRAW X7 -->
<svg xmlns="http://www.w3.org/2000/svg" xml:space="preserve" width="35mm" height="49.5mm" version="1.1" style="shape-rendering:geometricPrecision; text-rendering:geometricPrecision; image-rendering:optimizeQuality; fill-rule:evenodd; clip-rule:evenodd"
viewBox="0 0 3500 4950"
 xmlns:xlink="http://www.w3.org/1999/xlink">
 <defs>
  <style type="text/css">
   <![CDATA[
    .fil3 {fill:none}
    .fil0 {fill:#155BA6}
    .fil1 {fill:#46B4E8;fill-rule:nonzero}
    .fil2 {fill:#F5F7F9;fill-rule:nonzero}
    .fil4 {fill:white;fill-rule:nonzero}
   ]]>
  </style>
 </defs>
 <g id="Layer_x0020_1">
  <metadata id="CorelCorpID_0Corel-Layer"/>
  <g id="_2185208111472">
   <polygon class="fil0" points="414,503 2580,503 2580,1670 414,1670 "/>
   <path class="fil1" d="M940 709l-70 362c-12,66 -22,126 -32,190l-3 0c-9,-64 -19,-126 -31,-190l-73 -362 -160 0 188 746 144 0 191 -746 -154 0z"/>
   <path class="fil2" d="M1211 1001c-91,0 -158,85 -158,234 0,144 65,229 154,229 74,0 156,-65 156,-235 0,-134 -59,-228 -152,-228zm62 231c0,79 -23,145 -65,145 -43,0 -65,-65 -65,-144 0,-68 17,-145 66,-145 46,0 64,74 64,144z"/>
   <path class="fil2" d="M1441 1011l-43 0 0 87 43 0 0 205c0,49 2,160 98,160 25,0 47,-4 59,-10l-1 -90c-9,2 -16,4 -29,4 -27,0 -39,-23 -39,-76l0 -193 73 0 0 -87 -73 0 0 -116 -88 35 0 81z"/>
   <path class="fil2" d="M1896 1356c-23,11 -49,19 -81,19 -48,0 -89,-31 -91,-106l199 0c2,-13 2,-30 2,-48 0,-143 -52,-220 -133,-220 -98,0 -153,110 -153,238 0,138 59,224 162,224 41,0 80,-9 107,-25l-12 -82zm-172 -170c2,-43 20,-103 62,-103 44,0 58,57 57,103l-119 0z"/>
   <path class="fil2" d="M2169 1004c-6,-2 -12,-3 -20,-3 -31,0 -67,30 -83,87l-2 0 -4 -77 -76 0c2,40 3,84 3,139l0 305 88 0 0 -230c0,-75 31,-111 71,-111 9,0 16,1 23,2l0 -112z"/>
   <path class="fil2" d="M2410 1026c-19,-14 -49,-25 -83,-25 -74,0 -122,61 -122,141 0,48 23,95 85,129 37,21 48,35 48,62 0,27 -15,45 -46,45 -28,0 -60,-16 -78,-30l-17 86c23,17 58,29 94,29 84,0 131,-56 131,-140 0,-62 -26,-105 -82,-136 -38,-21 -51,-34 -51,-59 0,-24 14,-42 41,-42 25,0 49,13 63,23l17 -83z"/>
  </g>
  <polygon class="fil3" points="414,2267 2580,2267 2580,3434 414,3434 "/>
  <path class="fil4" d="M940 2473l-70 362c-12,66 -22,126 -32,190l-3 0c-9,-64 -19,-126 -31,-190l-73 -362 -160 0 188 746 144 0 191 -746 -154 0z"/>
  <path class="fil4" d="M1211 2765c-91,0 -158,85 -158,234 0,144 65,229 154,229 74,0 156,-65 156,-234 0,-135 -59,-229 -152,-229zm62 231c0,79 -23,145 -65,145 -43,0 -65,-65 -65,-144 0,-68 17,-145 66,-145 46,0 64,75 64,144z"/>
  <path class="fil4" d="M1441 2775l-43 0 0 87 43 0 0 205c0,49 2,160 98,160 25,0 47,-4 59,-10l-1 -90c-9,2 -16,4 -29,4 -27,0 -39,-23 -39,-76l0 -193 73 0 0 -87 -73 0 0 -116 -88 35 0 81z"/>
  <path class="fil4" d="M1896 3120c-23,11 -49,19 -81,19 -48,0 -89,-31 -91,-106l199 0c2,-13 2,-30 2,-47 0,-144 -52,-221 -133,-221 -98,0 -153,110 -153,238 0,138 59,224 162,224 41,0 80,-9 107,-25l-12 -82zm-172 -170c2,-43 20,-102 62,-102 44,0 58,56 57,102l-119 0z"/>
  <path class="fil4" d="M2169 2768c-6,-2 -12,-3 -20,-3 -31,0 -67,30 -83,87l-2 0 -4 -77 -76 0c2,40 3,84 3,139l0 305 88 0 0 -229c0,-76 31,-112 71,-112 9,0 16,1 23,2l0 -112z"/>
  <path class="fil4" d="M2410 2790c-19,-13 -49,-25 -83,-25 -74,0 -122,61 -122,141 0,48 23,95 85,129 37,21 48,35 48,62 0,27 -15,45 -46,45 -28,0 -60,-16 -78,-30l-17 86c23,17 58,29 94,29 84,0 131,-56 131,-140 0,-62 -26,-105 -82,-136 -38,-21 -51,-34 -51,-59 0,-24 14,-42 41,-42 25,0 49,13 63,23l17 -83z"/>
 </g>
</svg>
